<?xml version="1.0" encoding="UTF-8"?>
<svg id="Layer_2" data-name="Layer 2" xmlns="http://www.w3.org/2000/svg" viewBox="0 0 654.31 479.38">
  <defs>
    <style>
      .cls-1 {
        fill: #939598;
        stroke-width: 0px;
      }
    </style>
  </defs>
  <g id="Layer_1-2" data-name="Layer 1">
    <path class="cls-1" d="M111.5,222.27v58.28h35.55v-13.91c0-3.59.64-6.15,1.91-7.66,1.28-1.51,3.4-2.27,6.37-2.27s5.13.77,6.48,2.3c1.35,1.54,2.03,4.08,2.03,7.62v23.98c0,2.81-.55,4.69-1.64,5.62s-3.28,1.41-6.56,1.41h-70.86c-3.39,0-5.81-.68-7.27-2.03-1.46-1.35-2.19-3.57-2.19-6.64s.72-5.18,2.15-6.48c1.43-1.3,3.87-1.95,7.3-1.95h6.88v-58.28h-6.88c-3.39,0-5.81-.68-7.27-2.03-1.46-1.35-2.19-3.54-2.19-6.56s.77-5.22,2.3-6.6c1.54-1.38,3.97-2.07,7.3-2.07h33.28c3.33,0,5.77.69,7.3,2.07,1.54,1.38,2.3,3.58,2.3,6.6s-.76,5.21-2.27,6.56c-1.51,1.35-3.96,2.03-7.34,2.03h-6.72Z"/>
    <path class="cls-1" d="M196.45,162.77c2.19-2.34,4.71-4.13,7.58-5.35,2.86-1.22,5.94-1.84,9.22-1.84,7.08,0,12.19,2.1,15.31,6.29,3.12,4.19,4.69,11.21,4.69,21.05v29.61h1.09c2.45,0,4.28.72,5.51,2.15,1.22,1.43,1.84,3.53,1.84,6.29,0,3.12-.64,5.35-1.91,6.68-1.28,1.33-3.45,1.99-6.52,1.99h-13.28c-1.41,0-2.5-.3-3.28-.9-.78-.6-1.17-1.42-1.17-2.46v-44.14c0-3.49-.55-6.09-1.64-7.81s-2.68-2.58-4.77-2.58c-2.6,0-4.62,1.16-6.05,3.48-1.43,2.32-2.15,5.64-2.15,9.96v27.34h1.17c2.4,0,4.22.72,5.47,2.15,1.25,1.43,1.88,3.53,1.88,6.29,0,3.12-.65,5.35-1.95,6.68-1.3,1.33-3.49,1.99-6.56,1.99h-13.28c-1.41,0-2.53-.3-3.36-.9-.83-.6-1.25-1.42-1.25-2.46v-44.14c0-3.49-.52-6.09-1.56-7.81-1.04-1.72-2.6-2.58-4.69-2.58-2.6,0-4.65,1.17-6.13,3.52s-2.23,5.65-2.23,9.92v27.34h1.17c2.45,0,4.28.7,5.51,2.11,1.22,1.41,1.84,3.52,1.84,6.33,0,3.12-.65,5.35-1.95,6.68-1.3,1.33-3.49,1.99-6.56,1.99h-17.73c-3.02,0-5.18-.68-6.48-2.03-1.3-1.35-1.95-3.57-1.95-6.64,0-2.76.61-4.86,1.84-6.29,1.22-1.43,3.06-2.15,5.51-2.15h1.09v-37.97h-1.09c-2.45,0-4.31-.74-5.59-2.23s-1.91-3.61-1.91-6.37c0-3.02.66-5.2,1.99-6.52s3.53-1.99,6.6-1.99h10.55c2.13,0,3.58.43,4.34,1.29.75.86,1.13,2.51,1.13,4.96,1.93-2.66,4.24-4.67,6.95-6.05,2.71-1.38,5.73-2.07,9.06-2.07,3.02,0,5.65.59,7.89,1.76,2.24,1.17,4.19,2.98,5.86,5.43Z"/>
    <path class="cls-1" d="M132.78,115.2h16.8c3.59,0,6.15.65,7.66,1.95,1.51,1.3,2.27,3.46,2.27,6.48s-.77,5.29-2.3,6.64c-1.54,1.35-4.08,2.03-7.62,2.03h-52.81c-3.54,0-6.08-.68-7.62-2.03-1.54-1.35-2.3-3.57-2.3-6.64s.74-5.18,2.23-6.48c1.48-1.3,4.05-1.95,7.7-1.95h16.8v-37.97h-8.83c-3.49,0-5.99-.66-7.5-1.99-1.51-1.33-2.27-3.53-2.27-6.6s.73-5.26,2.19-6.56c1.46-1.3,3.98-1.95,7.58-1.95h23.52c1.46,0,2.58.3,3.36.9.78.6,1.17,1.42,1.17,2.46v51.72ZM121.53,24.8c3.8,0,6.33.73,7.58,2.19,1.25,1.46,1.88,4.95,1.88,10.47s-.56,8.61-1.68,9.88c-1.12,1.28-3.76,1.91-7.93,1.91s-6.68-.6-7.85-1.8c-1.17-1.2-1.76-3.59-1.76-7.19,0-6.67.6-10.91,1.8-12.73,1.2-1.82,3.85-2.73,7.97-2.73Z"/>
    <path class="cls-1" d="M480.59,249.23c2.19-2.34,4.71-4.13,7.58-5.35,2.86-1.22,5.94-1.84,9.22-1.84,7.08,0,12.19,2.1,15.31,6.29,3.12,4.19,4.69,11.21,4.69,21.05v29.61h1.09c2.45,0,4.28.72,5.51,2.15,1.22,1.43,1.84,3.53,1.84,6.29,0,3.12-.64,5.35-1.91,6.68-1.28,1.33-3.45,1.99-6.52,1.99h-13.28c-1.41,0-2.5-.3-3.28-.9-.78-.6-1.17-1.42-1.17-2.46v-44.14c0-3.49-.55-6.09-1.64-7.81s-2.68-2.58-4.77-2.58c-2.6,0-4.62,1.16-6.05,3.48-1.43,2.32-2.15,5.64-2.15,9.96v27.34h1.17c2.4,0,4.22.72,5.47,2.15,1.25,1.43,1.88,3.53,1.88,6.29,0,3.12-.65,5.35-1.95,6.68-1.3,1.33-3.49,1.99-6.56,1.99h-13.28c-1.41,0-2.53-.3-3.36-.9-.83-.6-1.25-1.42-1.25-2.46v-44.14c0-3.49-.52-6.09-1.56-7.81-1.04-1.72-2.6-2.58-4.69-2.58-2.6,0-4.65,1.17-6.13,3.52s-2.23,5.65-2.23,9.92v27.34h1.17c2.45,0,4.28.7,5.51,2.11,1.22,1.41,1.84,3.52,1.84,6.33,0,3.12-.65,5.35-1.95,6.68-1.3,1.33-3.49,1.99-6.56,1.99h-17.73c-3.02,0-5.18-.68-6.48-2.03-1.3-1.35-1.95-3.57-1.95-6.64,0-2.76.61-4.86,1.84-6.29,1.22-1.43,3.06-2.15,5.51-2.15h1.09v-37.97h-1.09c-2.45,0-4.31-.74-5.59-2.23s-1.91-3.61-1.91-6.37c0-3.02.66-5.2,1.99-6.52s3.53-1.99,6.6-1.99h10.55c2.13,0,3.58.43,4.34,1.29.75.86,1.13,2.51,1.13,4.96,1.93-2.66,4.24-4.67,6.95-6.05,2.71-1.38,5.73-2.07,9.06-2.07,3.02,0,5.65.59,7.89,1.76,2.24,1.17,4.19,2.98,5.86,5.43Z"/>
    <path class="cls-1" d="M285.23,319.19h23.83c3.59,0,6.15.65,7.66,1.95,1.51,1.3,2.27,3.46,2.27,6.48s-.77,5.29-2.3,6.64c-1.54,1.35-4.08,2.03-7.62,2.03h-23.83v20c0,5.62.86,9.48,2.58,11.56,1.72,2.08,4.74,3.12,9.06,3.12,4.06,0,8.85-1.17,14.38-3.52,5.52-2.34,9.22-3.52,11.09-3.52,2.13,0,3.97.85,5.51,2.54,1.54,1.69,2.3,3.74,2.3,6.13,0,4.01-3.63,7.67-10.9,10.98-7.27,3.31-15.51,4.96-24.73,4.96-5.37,0-10.08-.73-14.14-2.19s-7.27-3.54-9.61-6.25c-1.72-2.08-2.94-4.58-3.67-7.5-.73-2.92-1.09-7.79-1.09-14.61v-21.72h-7.34c-3.54,0-6.05-.68-7.54-2.03-1.48-1.35-2.23-3.57-2.23-6.64s.73-5.25,2.19-6.52c1.46-1.28,3.98-1.91,7.58-1.91h7.34v-18.28c0-3.59.74-6.12,2.23-7.58,1.48-1.46,3.95-2.19,7.38-2.19s5.9.73,7.38,2.19c1.48,1.46,2.23,3.98,2.23,7.58v18.28Z"/>
    <path class="cls-1" d="M592.51,223.52c1.35,5.78,3.97,10.11,7.85,12.97,3.88,2.87,9.05,4.3,15.51,4.3s12.84-1.57,19.14-4.73c6.3-3.15,10.1-4.73,11.41-4.73,1.93,0,3.5.72,4.73,2.15,1.22,1.43,1.84,3.27,1.84,5.51,0,4.9-3.62,9.12-10.86,12.66-7.24,3.54-16.2,5.31-26.88,5.31-12.6,0-22.85-3.54-30.74-10.62-7.89-7.08-11.84-16.2-11.84-27.34s3.95-20.18,11.84-27.27c7.89-7.08,18.14-10.62,30.74-10.62,11.25,0,20.57,3.32,27.97,9.96,7.4,6.64,11.09,14.78,11.09,24.41,0,3.07-.74,5.18-2.23,6.33-1.48,1.15-4.54,1.72-9.18,1.72h-50.39ZM634.62,211.33c-.89-4.84-3.16-8.59-6.84-11.25s-8.45-3.98-14.34-3.98-10.25,1.26-13.71,3.79c-3.46,2.53-5.87,6.34-7.23,11.45h42.11Z"/>
    <path class="cls-1" d="M574.75,97.27h23.83c3.59,0,6.15.65,7.66,1.95,1.51,1.3,2.27,3.46,2.27,6.48s-.77,5.29-2.3,6.64c-1.54,1.36-4.08,2.03-7.62,2.03h-23.83v20c0,5.62.86,9.48,2.58,11.56,1.72,2.08,4.74,3.12,9.06,3.12,4.06,0,8.85-1.17,14.38-3.52,5.52-2.34,9.22-3.52,11.09-3.52,2.13,0,3.97.85,5.51,2.54,1.54,1.69,2.3,3.74,2.3,6.13,0,4.01-3.63,7.67-10.9,10.98-7.27,3.31-15.51,4.96-24.73,4.96-5.37,0-10.08-.73-14.14-2.19s-7.27-3.54-9.61-6.25c-1.72-2.08-2.94-4.58-3.67-7.5-.73-2.92-1.09-7.79-1.09-14.61v-21.72h-7.34c-3.54,0-6.05-.68-7.54-2.03-1.48-1.35-2.23-3.57-2.23-6.64s.73-5.25,2.19-6.52c1.46-1.28,3.98-1.91,7.58-1.91h7.34v-18.28c0-3.59.74-6.12,2.23-7.58,1.48-1.46,3.95-2.19,7.38-2.19s5.9.73,7.38,2.19c1.48,1.46,2.23,3.98,2.23,7.58v18.28Z"/>
    <path class="cls-1" d="M455.05,337.31c1.35,5.78,3.97,10.11,7.85,12.97,3.88,2.87,9.05,4.3,15.51,4.3s12.84-1.57,19.14-4.73c6.3-3.15,10.1-4.73,11.41-4.73,1.93,0,3.5.72,4.73,2.15,1.22,1.43,1.84,3.27,1.84,5.51,0,4.9-3.62,9.12-10.86,12.66-7.24,3.54-16.2,5.31-26.88,5.31-12.6,0-22.85-3.54-30.74-10.62-7.89-7.08-11.84-16.2-11.84-27.34s3.95-20.18,11.84-27.27c7.89-7.08,18.14-10.62,30.74-10.62,11.25,0,20.57,3.32,27.97,9.96,7.4,6.64,11.09,14.78,11.09,24.41,0,3.07-.74,5.18-2.23,6.33-1.48,1.15-4.54,1.72-9.18,1.72h-50.39ZM497.16,325.12c-.89-4.84-3.16-8.59-6.84-11.25s-8.45-3.98-14.34-3.98-10.25,1.26-13.71,3.79c-3.46,2.53-5.87,6.34-7.23,11.45h42.11Z"/>
    <path class="cls-1" d="M276.57,119.18v25.31h18.44c3.54,0,6.05.65,7.54,1.95,1.48,1.3,2.23,3.46,2.23,6.48s-.74,5.29-2.23,6.64c-1.48,1.36-4,2.03-7.54,2.03h-43.67c-3.59,0-6.15-.68-7.66-2.03-1.51-1.35-2.27-3.57-2.27-6.64s.75-5.18,2.24-6.48c1.49-1.3,4.07-1.95,7.73-1.95h5.97v-37.97h-3.38c-3.56,0-6.09-.66-7.58-1.99-1.49-1.33-2.24-3.53-2.24-6.6s.72-5.26,2.15-6.56c1.43-1.3,3.97-1.95,7.62-1.95h16.64c1.41,0,2.5.3,3.28.9.78.6,1.17,1.42,1.17,2.46v11.56c5.68-6.09,10.98-10.44,15.9-13.05,4.92-2.6,10.22-3.91,15.9-3.91,5.16,0,9.24,1.16,12.27,3.48,3.02,2.32,4.53,5.43,4.53,9.34,0,3.02-1.04,5.51-3.12,7.46-2.08,1.95-4.77,2.93-8.05,2.93-2.34,0-5.12-.86-8.32-2.58s-5.43-2.58-6.68-2.58c-2.5,0-5.44,1.12-8.83,3.36-3.39,2.24-7.4,5.7-12.03,10.39Z"/>
    <path class="cls-1" d="M564.68,235.66c.62-2.03,1.6-3.55,2.93-4.57s3.03-1.52,5.12-1.52c2.81,0,4.82.85,6.02,2.54,1.2,1.69,1.8,4.62,1.8,8.79v12.81c0,3.18-.65,5.52-1.95,7.03-1.3,1.51-3.31,2.27-6.02,2.27-1.93,0-3.54-.44-4.84-1.33-1.3-.88-2.68-2.58-4.14-5.08-2.08-3.54-4.82-6.16-8.2-7.85-3.39-1.69-7.53-2.54-12.42-2.54-6.09,0-11.08,1.99-14.96,5.98-3.88,3.98-5.82,9.08-5.82,15.27,0,6.51,2,11.75,6.02,15.7,4.01,3.96,9.4,5.94,16.17,5.94,6.15,0,12.25-1.71,18.32-5.12,6.07-3.41,9.78-5.12,11.13-5.12,1.93,0,3.53.74,4.8,2.23,1.28,1.48,1.91,3.35,1.91,5.59,0,4.9-3.71,9.27-11.13,13.12s-16.24,5.78-26.45,5.78c-12.6,0-22.85-3.54-30.74-10.62-7.89-7.08-11.84-16.2-11.84-27.34s3.91-19.95,11.72-27.19c7.81-7.24,17.66-10.86,29.53-10.86,4.01,0,7.92.5,11.72,1.48,3.8.99,7.58,2.53,11.33,4.61Z"/>
    <path class="cls-1" d="M45.94,315.71h16.8c3.59,0,6.15.65,7.66,1.95,1.51,1.3,2.27,3.46,2.27,6.48s-.77,5.29-2.3,6.64c-1.54,1.36-4.08,2.03-7.62,2.03H9.92c-3.54,0-6.08-.68-7.62-2.03-1.54-1.35-2.3-3.57-2.3-6.64s.74-5.18,2.23-6.48c1.48-1.3,4.05-1.95,7.7-1.95h16.8v-37.97h-8.83c-3.49,0-5.99-.66-7.5-1.99-1.51-1.33-2.27-3.53-2.27-6.6s.73-5.26,2.19-6.56c1.46-1.3,3.98-1.95,7.58-1.95h23.52c1.46,0,2.58.3,3.36.9.78.6,1.17,1.42,1.17,2.46v51.72ZM34.69,225.32c3.8,0,6.33.73,7.58,2.19,1.25,1.46,1.88,4.95,1.88,10.47s-.56,8.61-1.68,9.88c-1.12,1.28-3.76,1.91-7.93,1.91s-6.68-.6-7.85-1.8c-1.17-1.2-1.76-3.59-1.76-7.19,0-6.67.6-10.91,1.8-12.73,1.2-1.82,3.85-2.73,7.97-2.73Z"/>
    <path class="cls-1" d="M398.13,56.8h1.02c2.92,0,5.1.72,6.56,2.15,1.46,1.43,2.19,3.58,2.19,6.45,0,3.07-.74,5.29-2.23,6.64-1.48,1.36-4,2.03-7.54,2.03h-19.22c-3.49,0-6-.68-7.54-2.03-1.54-1.35-2.3-3.57-2.3-6.64,0-2.86.74-5.01,2.23-6.45,1.48-1.43,3.71-2.15,6.68-2.15h.94v-22.58c0-6.25-.87-10.69-2.62-13.32-1.75-2.63-4.65-3.95-8.71-3.95-4.32,0-7.85,1.58-10.59,4.73-2.73,3.15-4.1,7.33-4.1,12.54v22.58h.94c2.97,0,5.18.72,6.64,2.15,1.46,1.43,2.19,3.58,2.19,6.45,0,3.07-.76,5.29-2.27,6.64-1.51,1.36-4.01,2.03-7.5,2.03h-19.38c-3.49,0-5.99-.68-7.5-2.03-1.51-1.35-2.27-3.57-2.27-6.64,0-2.86.73-5.01,2.19-6.45,1.46-1.43,3.67-2.15,6.64-2.15h.94V18.98h-1.33c-2.81,0-4.95-.71-6.41-2.15-1.46-1.43-2.19-3.53-2.19-6.29,0-3.07.75-5.29,2.27-6.64,1.51-1.35,4.06-2.03,7.66-2.03h13.28c1.46,0,2.56.29,3.32.86.75.57,1.13,1.41,1.13,2.5v6.09c2.4-3.75,5.46-6.57,9.18-8.48,3.72-1.9,8.03-2.85,12.93-2.85,8.33,0,14.54,2.53,18.63,7.58,4.09,5.05,6.13,12.76,6.13,23.12v26.09Z"/>
    <path class="cls-1" d="M464.19,96.52v-4.06c0-1.04.38-1.84,1.13-2.38.75-.55,1.89-.82,3.4-.82h12.73c3.59,0,6.12.66,7.58,1.99,1.46,1.33,2.19,3.5,2.19,6.52,0,2.81-.72,4.95-2.15,6.41-1.43,1.46-3.53,2.19-6.29,2.19h-1.33v53.83c0,11.41-3.1,19.69-9.3,24.84-6.2,5.16-16.15,7.73-29.84,7.73-8.49,0-14.73-.83-18.71-2.5-3.98-1.67-5.98-4.3-5.98-7.89,0-2.5.81-4.53,2.42-6.09,1.61-1.56,3.75-2.34,6.41-2.34.68,0,2.92.23,6.72.7,3.8.47,7.32.7,10.55.7,7.45,0,12.59-1.41,15.43-4.22,2.84-2.81,4.26-7.87,4.26-15.16v-3.52c-3.7,2.14-7.36,3.71-10.98,4.73-3.62,1.02-7.38,1.52-11.29,1.52-10.47,0-19.02-3.27-25.66-9.8-6.64-6.54-9.96-14.93-9.96-25.2s3.48-19.27,10.43-26.09c6.95-6.82,15.85-10.23,26.68-10.23,4.69,0,8.8.74,12.34,2.23,3.54,1.48,6.61,3.79,9.22,6.91ZM444.81,103.87c-5.1,0-9.34,1.85-12.7,5.55-3.36,3.7-5.04,8.41-5.04,14.14s1.68,10.27,5.04,13.95,7.59,5.51,12.7,5.51,9.41-1.84,12.77-5.51,5.04-8.32,5.04-13.95-1.68-10.44-5.04-14.14c-3.36-3.7-7.62-5.55-12.77-5.55Z"/>
    <path class="cls-1" d="M213.61,339.5h1.33c2.81,0,4.92.72,6.33,2.15,1.41,1.43,2.11,3.53,2.11,6.29,0,3.07-.74,5.29-2.23,6.64-1.48,1.36-4,2.03-7.54,2.03h-11.95c-1.51,0-2.67-.3-3.48-.9-.81-.6-1.21-1.42-1.21-2.46v-5.47c-2.55,3.49-5.83,6.16-9.84,8.01-4.01,1.85-8.52,2.77-13.52,2.77-10.21,0-18.75-3.48-25.62-10.43s-10.31-15.64-10.31-26.05,3.48-19.82,10.43-26.95c6.95-7.13,15.79-10.7,26.52-10.7,3.7,0,7.3.61,10.82,1.84,3.52,1.22,6.73,2.96,9.65,5.2v-19.77h-10.39c-3.59,0-6.15-.69-7.66-2.07-1.51-1.38-2.27-3.58-2.27-6.6s.75-5.29,2.27-6.64c1.51-1.35,4.06-2.03,7.66-2.03h24.3c1.77,0,2.98.37,3.63,1.09.65.73.98,2.08.98,4.06v80ZM176.97,301.06c-5.1,0-9.34,1.91-12.7,5.74s-5.04,8.69-5.04,14.57,1.67,10.98,5,14.8c3.33,3.83,7.58,5.74,12.73,5.74s9.41-1.93,12.77-5.78c3.36-3.85,5.04-8.78,5.04-14.77s-1.69-10.68-5.08-14.53c-3.39-3.85-7.63-5.78-12.73-5.78Z"/>
    <path class="cls-1" d="M552.33,425.2h16.8c3.59,0,6.15.65,7.66,1.95,1.51,1.3,2.27,3.46,2.27,6.48s-.77,5.29-2.3,6.64c-1.54,1.36-4.08,2.03-7.62,2.03h-52.81c-3.54,0-6.08-.68-7.62-2.03-1.54-1.35-2.3-3.57-2.3-6.64s.74-5.18,2.23-6.48c1.48-1.3,4.05-1.95,7.7-1.95h16.8v-37.97h-8.83c-3.49,0-5.99-.66-7.5-1.99-1.51-1.33-2.27-3.53-2.27-6.6s.73-5.26,2.19-6.56c1.46-1.3,3.98-1.95,7.58-1.95h23.52c1.46,0,2.58.3,3.36.9.78.6,1.17,1.42,1.17,2.46v51.72ZM541.08,334.81c3.8,0,6.33.73,7.58,2.19,1.25,1.46,1.88,4.95,1.88,10.47s-.56,8.61-1.68,9.88c-1.12,1.28-3.76,1.91-7.93,1.91s-6.68-.6-7.85-1.8c-1.17-1.2-1.76-3.59-1.76-7.19,0-6.67.6-10.91,1.8-12.73,1.2-1.82,3.85-2.73,7.97-2.73Z"/>
    <path class="cls-1" d="M169.11,462.27h16.8c3.59,0,6.15.65,7.66,1.95,1.51,1.3,2.27,3.46,2.27,6.48s-.77,5.29-2.3,6.64c-1.54,1.36-4.08,2.03-7.62,2.03h-52.81c-3.54,0-6.08-.68-7.62-2.03-1.54-1.35-2.3-3.57-2.3-6.64s.74-5.18,2.23-6.48c1.48-1.3,4.05-1.95,7.7-1.95h16.8v-37.97h-8.83c-3.49,0-5.99-.66-7.5-1.99-1.51-1.33-2.27-3.53-2.27-6.6s.73-5.26,2.19-6.56c1.46-1.3,3.98-1.95,7.58-1.95h23.52c1.46,0,2.58.3,3.36.9.78.6,1.17,1.42,1.17,2.46v51.72ZM157.86,371.88c3.8,0,6.33.73,7.58,2.19,1.25,1.46,1.88,4.95,1.88,10.47s-.56,8.61-1.68,9.88c-1.12,1.28-3.76,1.91-7.93,1.91s-6.68-.6-7.85-1.8c-1.17-1.2-1.76-3.59-1.76-7.19,0-6.67.6-10.91,1.8-12.73,1.2-1.82,3.85-2.73,7.97-2.73Z"/>
    <path class="cls-1" d="M385.56,216.64v25.31h18.44c3.54,0,6.05.65,7.54,1.95,1.48,1.3,2.23,3.46,2.23,6.48s-.74,5.29-2.23,6.64c-1.48,1.36-4,2.03-7.54,2.03h-43.67c-3.59,0-6.15-.68-7.66-2.03-1.51-1.35-2.27-3.57-2.27-6.64s.75-5.18,2.24-6.48c1.49-1.3,4.07-1.95,7.73-1.95h5.97v-37.97h-3.38c-3.56,0-6.09-.66-7.58-1.99-1.49-1.33-2.24-3.53-2.24-6.6s.72-5.26,2.15-6.56c1.43-1.3,3.97-1.95,7.62-1.95h16.64c1.41,0,2.5.3,3.28.9.78.6,1.17,1.42,1.17,2.46v11.56c5.68-6.09,10.98-10.44,15.9-13.05,4.92-2.6,10.22-3.91,15.9-3.91,5.16,0,9.24,1.16,12.27,3.48,3.02,2.32,4.53,5.43,4.53,9.34,0,3.02-1.04,5.51-3.12,7.46-2.08,1.95-4.77,2.93-8.05,2.93-2.34,0-5.12-.86-8.32-2.58s-5.43-2.58-6.68-2.58c-2.5,0-5.44,1.12-8.83,3.36-3.39,2.24-7.4,5.7-12.03,10.39Z"/>
    <path class="cls-1" d="M418.91,405.67l14.06,33.28,14.77-33.28h-1.25c-2.81,0-4.96-.73-6.45-2.19-1.48-1.46-2.23-3.59-2.23-6.41,0-3.07.74-5.26,2.23-6.56,1.48-1.3,4.05-1.95,7.7-1.95h18.36c3.65,0,6.21.66,7.7,1.99s2.23,3.5,2.23,6.52c0,2.81-.73,4.95-2.19,6.41-1.46,1.46-3.59,2.19-6.41,2.19h-1.33l-23.2,49.3c-1.72,3.54-3.27,5.72-4.65,6.52-1.38.81-3.5,1.21-6.37,1.21-5.21,0-8.72-2.19-10.55-6.56-.21-.52-.37-.91-.47-1.17l-21.8-49.3h-1.25c-2.81,0-4.96-.73-6.45-2.19-1.48-1.46-2.23-3.59-2.23-6.41,0-3.07.75-5.26,2.27-6.56,1.51-1.3,4.06-1.95,7.66-1.95h19.84c3.59,0,6.15.66,7.66,1.99,1.51,1.33,2.27,3.5,2.27,6.52,0,2.81-.74,4.95-2.23,6.41-1.48,1.46-3.61,2.19-6.37,2.19h-1.33Z"/>
  </g>
</svg>