<?xml version="1.0" encoding="UTF-8"?>
<svg id="Layer_1" data-name="Layer 1" xmlns="http://www.w3.org/2000/svg" viewBox="0 0 72.55 94.92">
  <defs>
    <style>
      .cls-1 {
        fill: none;
      }

      .cls-1, .cls-2, .cls-3 {
        stroke: #818285;
        stroke-miterlimit: 10;
      }

      .cls-2 {
        fill: #818285;
      }

      .cls-3 {
        fill: #a8aaad;
      }
    </style>
  </defs>
  <g id="Layer_2" data-name="Layer 2">
    <path class="cls-1" d="M35.08,24.42c-5.36-5.39-5.22-14.22.32-19.72,5.54-5.51,14.37-5.61,19.73-.22l13.9,13.97-3.1,3.1,1.12,1.12-2.43,2.43"/>
    <path class="cls-1" d="M64.94,77.93c-2.8,2.89-13.7,11.2-13.7,11.2,0,0-13.07,10.44-33.99,1.99-12-4.85-16.07-13.27-16.07-13.27l24.45-18.31,12.49,14.98,1.66,1.89c5.99,7.31,17.26,7.99,25.16,1.52s9.45-17.65,3.45-24.97l-10.16-12.29-17.53-21.54c-2.89-3.55-2.73-8.47.36-10.99s7.94-1.68,10.83,1.88l13.76,16.38-11.65,9.08"/>
    <path class="cls-2" d="M54.02,35.49l11.65-9.08-13.76-16.38c-2.89-3.55-7.74-4.39-10.83-1.88-3.09,2.52-3.25,7.43-.36,10.99l13.31,16.36h0Z"/>
    <path class="cls-2" d="M64.94,77.93c-2.8,2.89-13.7,11.2-13.7,11.2,0,0-13.07,10.44-33.99,1.99-12-4.85-16.07-13.27-16.07-13.27l24.45-18.31,12.49,14.98,1.66,1.89c5.99,7.31,17.26,7.99,25.16,1.52"/>
  </g>
  <g id="Layer_3" data-name="Layer 3">
    <path class="cls-3" d="M34.47,5.59l2.32-2.12s-1.1.7-2.32,2.12Z"/>
    <path class="cls-2" d="M65.73,21.37l-11.53-12.53s.75.23,2.37,1.53,10.31,10.01,10.31,10.01l-1.15.98Z"/>
    <path class="cls-2" d="M61.71,54.85l-26.63-30.42c-3.47-3.96-3.85-8.08-3.85-8.08-.6-5.12,1.46-8.69,3.24-10.74L.51,36.6c.68,17.03,14.8,23.34,14.8,23.34l12.16-9.02,10.01,12.45,6.51,7.42c4.4,4.89,11.94,5.29,16.83.89s5.29-11.94.89-16.83h0ZM31.61,24.86l1.35,1.65-14.12,12.25c-.42-.56-.81-1.17-1.17-1.81l13.94-12.09ZM30.33,23.14l-13.67,11.85c-.32-.69-.6-1.39-.86-2.08l13.49-11.69c.27.61.61,1.25,1.04,1.92h0ZM28.26,16.02c0,.51-.04,1.58.29,3.02l-13.47,11.68c-.22-.78-.39-1.52-.52-2.2l13.7-12.49ZM8.49,51.15c-2.75-2.35-4.93-7.33-6.15-13.25l10.24-8.12s.28,8.75,6.79,13.1l-10.89,8.27h0ZM21.84,41.59c-.56-.32-1.1-.74-1.61-1.23l14.08-12.21,1.32,1.61-13.8,11.84h0Z"/>
  </g>
</svg>