<?xml version="1.0" encoding="UTF-8"?>
<svg id="Layer_1" data-name="Layer 1" xmlns="http://www.w3.org/2000/svg" viewBox="0 0 16.18 21.14">
  <defs>
    <style>
      .cls-1 {
        fill: #a8aaad;
      }

      .cls-1, .cls-2, .cls-3 {
        stroke: #818285;
        stroke-miterlimit: 10;
        stroke-width: .25px;
      }

      .cls-2 {
        fill: none;
      }

      .cls-3 {
        fill: #818285;
      }
    </style>
  </defs>
  <g id="Layer_2" data-name="Layer 2">
    <path class="cls-2" d="M7.83,5.44c-1.2-1.2-1.16-3.16.07-4.39,1.22-1.22,3.21-1.25,4.39-.04l3.09,3.12-.69.69.24.24-.53.53"/>
    <path class="cls-2" d="M14.46,17.35c-.62.65-3.05,2.49-3.05,2.49,0,0-2.92,2.32-7.57.45-2.67-1.07-3.58-2.96-3.58-2.96l5.45-4.07,2.78,3.34.38.42c1.34,1.63,3.85,1.78,5.61.33s2.09-3.94.76-5.57l-2.27-2.74-3.9-4.79c-.65-.8-.6-1.89.09-2.45s1.76-.38,2.4.42l3.07,3.65-2.6,2.03"/>
    <path class="cls-3" d="M12.04,7.91l2.58-2.03-3.07-3.65c-.65-.8-1.71-.98-2.4-.42-.69.56-.71,1.65-.09,2.45l2.96,3.65h.02Z"/>
    <path class="cls-3" d="M14.46,17.35c-.62.65-3.05,2.49-3.05,2.49,0,0-2.92,2.32-7.57.45-2.67-1.07-3.58-2.96-3.58-2.96l5.45-4.07,2.78,3.34.38.42c1.34,1.63,3.85,1.78,5.61.33"/>
  </g>
  <g id="Layer_3" data-name="Layer 3">
    <path class="cls-1" d="M7.7,1.26l.51-.47s-.24.16-.51.47Z"/>
    <path class="cls-3" d="M14.64,4.77l-2.56-2.78s.18.04.53.33,2.29,2.23,2.29,2.23l-.27.22h0Z"/>
    <path class="cls-3" d="M13.75,12.21l-5.92-6.77c-.78-.89-.87-1.8-.87-1.8-.13-1.14.33-1.94.71-2.38L.13,8.16c.16,3.78,3.29,5.19,3.29,5.19l2.72-2,2.23,2.78,1.45,1.65c.98,1.09,2.65,1.18,3.74.2s1.18-2.65.2-3.74h0v-.02ZM7.05,5.55l.29.36-3.14,2.74c-.09-.13-.18-.27-.27-.4l3.09-2.69h.02ZM6.76,5.15l-3.05,2.63c-.07-.16-.13-.31-.2-.47l3.01-2.6c.07.13.13.27.22.42h0l.02.02ZM6.32,3.57c0,.11,0,.36.07.67l-3.01,2.6c-.04-.18-.09-.33-.11-.49l3.05-2.78h0ZM1.91,11.41c-.62-.51-1.09-1.63-1.38-2.94l2.27-1.8s.07,1.96,1.51,2.92l-2.43,1.85h0l.02-.02ZM4.87,9.27c-.13-.07-.24-.16-.36-.27l3.14-2.72.29.36-3.07,2.63h0Z"/>
  </g>
</svg>